<svg xmlns="http://www.w3.org/2000/svg" viewBox="0 0 64 64" width="64" height="64" fill="none" stroke="currentColor" stroke-width="4" stroke-linecap="round" stroke-linejoin="round">
  <path d="M15 6h34a5 5 0 0 1 5 5v42a5 5 0 0 1 -5 5h-34a5 5 0 0 1 -5 -5v-42a5 5 0 0 1 5 -5z"/>
  <path d="M10 20h44"/>
  <circle cx="45" cy="13" r="2.5" fill="currentColor" stroke="none"/>
  <circle cx="32" cy="39" r="12"/>
  <path d="M25 35c3.5-3.5 3.5 3.5 7 0s3.5 3.5 7 0" stroke-width="3"/>
  <path d="M25 44c3.5-3.5 3.5 3.5 7 0s3.5 3.5 7 0" stroke-width="3"/>
</svg>
