<svg xmlns="http://www.w3.org/2000/svg" viewBox="0 0 64 64" width="64" height="64" fill="none" stroke="currentColor" stroke-width="4" stroke-linecap="round" stroke-linejoin="round">
  <path d="M13 8h38a5 5 0 0 1 5 5v38a5 5 0 0 1 -5 5h-38a5 5 0 0 1 -5 -5v-38a5 5 0 0 1 5 -5z"/>
  <path d="M8 22h48"/>
  <circle cx="17" cy="15" r="2.5" fill="currentColor" stroke="none"/>
  <circle cx="27" cy="15" r="2.5" fill="currentColor" stroke="none"/>
  <path d="M19 31h26a3 3 0 0 1 3 3v13a3 3 0 0 1 -3 3h-26a3 3 0 0 1 -3 -3v-13a3 3 0 0 1 3 -3z"/>
</svg>
